<svg width="36" height="36" viewBox="0 0 36 36" fill="none" xmlns="http://www.w3.org/2000/svg">
<path d="M27.0465 24.9252L33.4705 31.3492L31.3492 33.4705L24.9252 27.0465C22.6153 28.8945 19.686 30 16.5 30C9.04795 30 2.99995 23.952 2.99995 16.5C2.99995 9.048 9.04795 3 16.5 3C23.952 3 30 9.048 30 16.5C30 19.686 28.8945 22.6153 27.0465 24.9252ZM24.037 23.8122C25.8712 21.9219 27 19.3434 27 16.5C27 10.6987 22.3012 6 16.5 6C10.6987 6 5.99995 10.6987 5.99995 16.5C5.99995 22.3012 10.6987 27 16.5 27C19.3434 27 21.9219 25.8712 23.8122 24.037L24.037 23.8122Z" fill="#00A314"/>
</svg>
